<svg width="26" height="24" viewBox="0 0 26 24" fill="none" xmlns="http://www.w3.org/2000/svg">
<path d="M13 23.4759C12.7687 23.4759 12.548 23.3795 12.3907 23.2101L2.57282 12.6283C2.5703 12.6255 2.56777 12.6228 2.56531 12.6201C1.37356 11.3006 0.717285 9.55187 0.717285 7.69606C0.717285 5.8402 1.37356 4.09157 2.56531 2.7721L2.7145 2.60695C3.92759 1.26388 5.5473 0.52417 7.27532 0.52417C9.00334 0.52417 10.6231 1.26388 11.8363 2.60702L13 3.8955L14.1637 2.60709C15.3767 1.26395 16.9965 0.524236 18.7245 0.524236C20.4526 0.524236 22.0723 1.26395 23.2855 2.60715L23.4345 2.7719C24.6264 4.0917 25.2827 5.84033 25.2827 7.69613C25.2827 9.55193 24.6264 11.3006 23.4347 12.6201C23.4322 12.623 23.4297 12.6257 23.4272 12.6284L13.6092 23.2102C13.4519 23.3795 13.2312 23.4759 13 23.4759ZM3.79522 11.5019L13 21.4228L22.2047 11.5019C24.0985 9.40075 24.0973 5.9856 22.2011 3.88606L22.0522 3.72131C21.158 2.73128 19.9763 2.18617 18.7245 2.18617C17.4728 2.18617 16.291 2.73128 15.3971 3.72098L13.6168 5.69227C13.4592 5.86672 13.2351 5.96625 13.0001 5.96625C12.7651 5.96625 12.541 5.86672 12.3834 5.69227L10.603 3.72111C9.70901 2.73135 8.52731 2.18623 7.27552 2.18623C6.02374 2.18623 4.84196 2.73128 3.94807 3.72105L3.79888 3.8862C1.90258 5.98573 1.90132 9.40088 3.79522 11.5019Z" fill="#495867"/>
</svg>
