<?xml version="1.0" encoding="UTF-8"?>
<!DOCTYPE svg PUBLIC "-//W3C//DTD SVG 1.1//EN" "http://www.w3.org/Graphics/SVG/1.1/DTD/svg11.dtd">
<!-- Creator: CorelDRAW 2021 (64-Bit) -->
<svg xmlns="http://www.w3.org/2000/svg" xml:space="preserve" width="6mm" height="6mm" version="1.1" style="shape-rendering:geometricPrecision; text-rendering:geometricPrecision; image-rendering:optimizeQuality; fill-rule:evenodd; clip-rule:evenodd"
viewBox="0 0 600 600"
 xmlns:xlink="http://www.w3.org/1999/xlink"
 xmlns:xodm="http://www.corel.com/coreldraw/odm/2003">
 <defs>
  <style type="text/css">
   <![CDATA[
    .fil0 {fill:#F10A0F;fill-rule:nonzero}
   ]]>
  </style>
 </defs>
 <g id="Capa_x0020_1">
  <metadata id="CorelCorpID_0Corel-Layer"/>
  <path class="fil0" d="M83.53 463.55l423.34 0c14.55,0 26.46,-11.91 26.46,-26.46 0,-14.55 -11.91,-26.46 -26.46,-26.46l-423.34 0c-14.55,0 -26.46,11.91 -26.46,26.46 0,14.55 11.91,26.46 26.46,26.46zm0 -132.29l423.34 0c14.55,0 26.46,-11.91 26.46,-26.46 0,-14.55 -11.91,-26.46 -26.46,-26.46l-423.34 0c-14.55,0 -26.46,11.91 -26.46,26.46 0,14.55 11.91,26.46 26.46,26.46zm-26.45 -158.75c0,14.55 11.91,26.46 26.46,26.46l423.33 0c14.55,0 26.46,-11.91 26.46,-26.46 0,-14.55 -11.91,-26.46 -26.46,-26.46l-423.34 0c-14.55,0 -26.46,11.91 -26.46,26.46l0.01 0z"/>
 </g>
</svg>
