<svg width="80" height="80" viewBox="0 0 80 80" fill="none" xmlns="http://www.w3.org/2000/svg">
<g clip-path="url(#clip0_1_2)">
<path d="M38.5454 33.0909C39.0977 33.0909 39.5454 32.6432 39.5454 32.0909C39.5454 31.5386 39.0977 31.0909 38.5454 31.0909C37.9931 31.0909 37.5454 31.5386 37.5454 32.0909C37.5454 32.6432 37.9931 33.0909 38.5454 33.0909Z" stroke="white" stroke-width="2" stroke-linecap="round" stroke-linejoin="round"/>
<path d="M43.5454 43.0909C44.0977 43.0909 44.5454 42.6432 44.5454 42.0909C44.5454 41.5386 44.0977 41.0909 43.5454 41.0909C42.9931 41.0909 42.5454 41.5386 42.5454 42.0909C42.5454 42.6432 42.9931 43.0909 43.5454 43.0909Z" stroke="white" stroke-width="2" stroke-linecap="round" stroke-linejoin="round"/>
<path d="M35.5454 51.0909C36.0977 51.0909 36.5454 50.6432 36.5454 50.0909C36.5454 49.5386 36.0977 49.0909 35.5454 49.0909C34.9931 49.0909 34.5454 49.5386 34.5454 50.0909C34.5454 50.6432 34.9931 51.0909 35.5454 51.0909Z" stroke="white" stroke-width="2" stroke-linecap="round" stroke-linejoin="round"/>
<path d="M45.5454 53.0909C46.0977 53.0909 46.5454 52.6432 46.5454 52.0909C46.5454 51.5386 46.0977 51.0909 45.5454 51.0909C44.9931 51.0909 44.5454 51.5386 44.5454 52.0909C44.5454 52.6432 44.9931 53.0909 45.5454 53.0909Z" stroke="white" stroke-width="2" stroke-linecap="round" stroke-linejoin="round"/>
<path d="M36.4254 57.0909C36.2514 59.3809 35.2234 61.5229 33.5454 63.0909H45.5454C43.8674 61.5229 42.8394 59.3809 42.6654 57.0909H36.4254Z" stroke="white" stroke-width="2.5" stroke-linecap="round" stroke-linejoin="round"/>
<path d="M36.4254 26.5109L28.5454 35.0909H34.5454L25.5454 46.0909H31.5454L22.5454 57.0909H56.5454L47.5454 46.0909H53.5454L44.5454 35.0909H50.5454L42.6654 26.5109" stroke="white" stroke-width="2.5" stroke-linecap="round" stroke-linejoin="round"/>
<path d="M39.5454 17.0909L41.1454 20.3509L44.9654 21.1509L42.1454 23.3909L42.7454 26.9709L39.5454 25.2709L36.3454 26.9709L36.9454 23.3909L34.1254 21.1509L37.9454 20.3509L39.5454 17.0909Z" stroke="white" stroke-width="2.5" stroke-linecap="round" stroke-linejoin="round"/>
</g>
<defs>
<clipPath id="clip0_1_2">
<rect width="48" height="48" fill="white" transform="translate(16 16)"/>
</clipPath>
</defs>
</svg>
