<svg width="187" height="30" viewBox="0 0 187 30" fill="none" xmlns="http://www.w3.org/2000/svg">
<path fill-rule="evenodd" clip-rule="evenodd" d="M71.8541 8.02017C74.8253 9.01012 76.657 11.1564 77.3779 14.1919C78.0681 17.094 77.3003 19.8749 75.5768 22.0889C73.3019 25.0053 67.6188 26.2992 64.0942 23.4547L63.9656 24.613H60.1571V19.0595V5.03801C60.1571 2.55082 62.1624 0.536011 64.6333 0.536011V9.19907C66.269 7.63816 69.1565 7.10211 71.8541 8.02017ZM69.2709 20.8607C71.1108 20.6512 72.3483 19.5627 72.8853 17.7984C73.6368 14.9149 72.0277 11.3597 67.8026 11.7951C65.7299 12.1135 64.7355 13.66 64.7355 13.66V19.0574C65.9096 20.4972 67.531 21.0599 69.2709 20.8607ZM11.5295 4.85711H7.18195C5.6892 4.85711 4.47621 6.07503 4.47621 7.57638V10.2012H9.52623V14.4855H4.47621V24.962C4.47621 27.4492 2.4709 29.464 0 29.464V7.77148C0 3.79527 3.204 0.572829 7.15743 0.572829H11.5295V4.85711ZM37.0615 24.6497H32.5853V5.08292C32.5853 2.59573 34.5906 0.580929 37.0615 0.580929V24.6497ZM104.237 24.6497H99.761V5.08292C99.761 2.59573 101.766 0.580929 104.237 0.580929V24.6497ZM107.28 24.6497H111.756V0.580929C109.285 0.580929 107.28 2.59573 107.28 5.08292V24.6497ZM88.9809 25.0833C82.2421 25.0833 79.4485 20.3738 79.7283 15.5638C79.9468 11.8258 82.8057 7.57027 88.7093 7.57027C95.3889 7.57027 98.0701 13.6599 97.0981 18.168H84.5496C84.8008 19.8604 86.4324 21.0269 88.6317 21.1748C91.268 21.3515 92.967 19.3613 92.967 19.3613L96.3671 21.1666C94.7069 23.9455 92.0665 25.0833 88.9809 25.0833ZM88.7011 11.4828C85.5339 11.4623 84.566 14.1672 84.5823 14.9374H92.675C92.7485 14.2596 92.1012 11.5034 88.7011 11.4828ZM29.5814 8.4435C28.5767 8.4435 27.6557 8.79471 26.9308 9.37594C24.7294 7.77807 21.5091 6.94625 17.9539 8.15596C15.001 9.13974 13.1795 11.2737 12.4628 14.2907C11.7766 17.1764 12.5403 19.9429 14.2536 22.1384C16.5081 25.0261 22.1197 26.3138 25.6259 23.533L25.9792 24.6503H29.5834V12.6333L29.5814 8.4435ZM25.1603 19.2302C23.9004 20.6946 22.2524 21.0273 20.5207 20.8301C18.6931 20.6207 17.4617 19.6328 16.9267 17.8767C16.1793 15.0117 17.7803 11.3846 21.9788 11.8179C24.2863 12.1774 25.1583 13.8656 25.1583 13.8656V19.2302H25.1603ZM129.438 9.37981C130.163 8.79652 131.084 8.44736 132.089 8.44736H132.091V12.6372V24.6541H128.487L128.133 23.5368C124.627 26.3177 119.016 25.03 116.761 22.1423C115.048 19.9468 114.284 17.1802 114.97 14.2946C115.687 11.2775 117.509 9.14361 120.461 8.15982C124.017 6.95012 127.237 7.78193 129.438 9.37981ZM123.028 20.834C124.76 21.0312 126.408 20.6985 127.668 19.2341H127.666V13.8695C127.666 13.8695 126.794 12.1812 124.486 11.8218C120.288 11.3885 118.687 15.0155 119.434 17.8806C119.969 19.6366 121.201 20.6245 123.028 20.834ZM54.4985 9.37594C52.2972 7.77807 49.0769 6.94625 45.5216 8.15596C42.5688 9.13974 40.7473 11.2737 40.0305 14.2907C39.3444 17.1764 40.1081 19.9429 41.8214 22.1384C44.0758 25.0261 49.6874 26.3138 53.1936 23.533L53.5469 24.6503H57.1512V12.6333V8.44144C56.1444 8.4435 55.2255 8.79266 54.4985 9.37594ZM52.7281 19.2302C51.4681 20.6946 49.8202 21.0273 48.0885 20.8301C46.2608 20.6207 45.0295 19.6328 44.4945 17.8767C43.7471 15.0117 45.348 11.3846 49.5465 11.8179C51.8541 12.1774 52.726 13.8656 52.726 13.8656V19.2302H52.7281ZM151.327 17.7C151.327 13.7546 154.321 10.7766 158.291 10.7766C162.275 10.7766 165.279 13.7526 165.281 17.7C165.281 21.6639 162.275 24.6502 158.291 24.6502C154.321 24.6502 151.327 21.6639 151.327 17.7ZM154.915 17.698C154.915 19.7867 156.332 21.3024 158.289 21.3024C160.229 21.3024 161.693 19.7539 161.693 17.698C161.693 15.6606 160.231 14.1243 158.289 14.1243C156.365 14.1243 154.915 15.6606 154.915 17.698ZM181.778 10.7766C179.722 10.6185 177.964 11.6906 176.984 12.3006C175.859 11.3887 174.605 10.7766 173.002 10.7766C170.016 10.7766 166.969 12.5799 166.969 12.5799V24.336H170.453V14.5906C171.015 14.1819 172.03 14.1265 172.597 14.1265C173.788 14.1265 175.176 15.0651 175.176 16.6506V24.336H178.66V15.7675C178.66 15.0774 178.472 14.7262 178.472 14.7262C180.796 13.422 183.516 14.4161 183.516 16.6506V24.336H187V16.5972C186.998 12.8387 184.108 10.9553 181.778 10.7766ZM145.299 14.1242C143.645 14.1242 142.248 15.531 141.977 17.1392C141.099 16.2786 139.945 15.7015 138.66 15.5475C139.549 12.7193 142.177 10.7744 145.456 10.7744C148.368 10.7744 150.374 12.4154 150.374 12.4154L148.593 15.2291C148.593 15.2291 147.237 14.1242 145.299 14.1242ZM148.687 20.1189C148.687 20.1189 147.353 21.2999 145.301 21.2999C144.721 21.2999 144.174 21.1253 143.694 20.8296C143.704 20.9734 143.712 21.1171 143.712 21.2629C143.712 22.3433 143.416 23.3537 142.902 24.2184C143.69 24.4977 144.55 24.6497 145.46 24.6497C148.722 24.6497 150.551 22.7499 150.551 22.7499L148.687 20.1189ZM141.19 21.2653C141.19 23.045 139.756 24.4877 137.986 24.4877C136.217 24.4877 134.782 23.045 134.782 21.2653C134.782 19.4855 136.217 18.0428 137.986 18.0428C139.756 18.0428 141.19 19.4855 141.19 21.2653Z" fill="#FF6200"/>
</svg>
