<?xml version="1.0" encoding="UTF-8"?>
<!DOCTYPE svg PUBLIC "-//W3C//DTD SVG 1.1//EN" "http://www.w3.org/Graphics/SVG/1.1/DTD/svg11.dtd">
<!-- Creator: CorelDRAW 2021 (64-Bit) -->
<svg xmlns="http://www.w3.org/2000/svg" xml:space="preserve" width="30mm" height="18mm" version="1.1" style="shape-rendering:geometricPrecision; text-rendering:geometricPrecision; image-rendering:optimizeQuality; fill-rule:evenodd; clip-rule:evenodd"
viewBox="0 0 3000 1800"
 xmlns:xlink="http://www.w3.org/1999/xlink"
 xmlns:xodm="http://www.corel.com/coreldraw/odm/2003">
 <defs>
  <style type="text/css">
   <![CDATA[
    .fil1 {fill:white}
    .fil0 {fill:url(#id0)}
   ]]>
  </style>
  <linearGradient id="id0" gradientUnits="userSpaceOnUse" x1="202.2" y1="935.93" x2="2625.46" y2="935.93">
   <stop offset="0" style="stop-opacity:1; stop-color:#1014F0"/>
   <stop offset="1" style="stop-opacity:1; stop-color:#F60A0A"/>
  </linearGradient>
 </defs>
 <g id="Capa_x0020_1">
  <metadata id="CorelCorpID_0Corel-Layer"/>
  <path class="fil0" d="M1845.06 1561.11c0.8,5.21 2.02,10.18 3.85,15.81 2.39,7.99 5.38,15.71 8.96,23.11l0.64 1.5c2.7,6.34 9.51,17.15 13.98,23.05 17.62,23.3 34.35,36.82 60.87,50.23 38.24,19.33 81.23,18.92 119.08,4.55 24.63,-8.91 46.38,-23.82 63.51,-42.96 16.73,-18.3 29.14,-40.49 34.95,-65.22 3.24,-12.56 4.96,-25.71 4.96,-39.27 0,-86.57 -70.18,-156.76 -156.76,-156.76 -86.58,0 -156.76,70.19 -156.76,156.76 0,9.98 0.94,19.74 2.72,29.2zm-1536.18 -715.46l250.29 0c60.3,0 106.69,49.28 106.69,108.42 0,64.07 -46.4,113.35 -106.69,113.35l-250.29 0c-60.29,0 -106.68,-49.28 -106.68,-113.35 0,-59.14 46.38,-108.42 106.68,-108.42zm67.27 -442.37l250.28 0c60.3,0 106.69,49.29 106.69,108.42 0,64.07 -46.4,113.35 -106.69,113.35l-250.28 0c-60.29,0 -106.69,-49.28 -106.69,-113.35 0,-59.13 46.38,-108.42 106.69,-108.42zm842.22 -221.19l1206.72 0c126.98,0 216.08,103.9 198.03,230.86l-91.68 644.79c-18.05,126.97 -136.72,230.86 -263.68,230.86l-397.07 0 -8.55 0 112.3 -800.8 337.15 0 29.17 -208.02 -918.13 0 -29.17 208.02 337.15 0 -112.3 800.8 -557.27 0 -257.18 0c-60.3,0 -106.68,-49.28 -106.68,-113.35 0,-55.39 40.69,-102.13 95.39,-107.83l518.62 0c60.3,0 106.68,-49.28 106.68,-113.35 0,-59.14 -46.38,-108.42 -106.68,-108.42l-527.68 0c-54.73,-5.7 -95.45,-52.74 -95.45,-112.76 0,-55.39 40.69,-102.14 95.39,-107.84l285.39 0c60.3,0 106.69,-49.28 106.69,-113.35 0,-59.13 -46.39,-108.42 -106.69,-108.42l-178.91 0c-54.73,-5.69 -95.45,-52.74 -95.45,-112.76 0,-59.14 46.38,-108.42 106.68,-108.42l316.75 0 0.46 -0.01zm-151.43 1193.06c86.58,0 156.77,70.19 156.77,156.76 0,55.2 -28.54,103.73 -71.65,131.66 -24.82,16.97 -54.09,25.54 -92.17,25.54 -58.57,0 -109.45,-38.49 -134.31,-87.89 -11.87,-23.58 -14.55,-38.79 -15.14,-60.44 -0.17,-2.94 -0.26,-5.89 -0.26,-8.87 0,-1.72 0.04,-3.43 0.09,-5.13l0 -2.09c0,-25.56 7.92,-49.52 20.35,-70.21 26.96,-47.38 77.91,-79.33 136.32,-79.33z"/>
  <polygon class="fil1" points="1618.31,1288.6 1730.61,487.8 1393.46,487.8 1422.63,279.78 2340.76,279.78 2311.59,487.8 1974.44,487.8 1862.14,1288.6 "/>
 </g>
</svg>
