<svg width="64" height="24" viewBox="0 0 64 24" fill="none" xmlns="http://www.w3.org/2000/svg">
<path d="M6.00357 6.43589C6.30354 5.09506 6.58444 3.91415 7.60627 2.9133C8.30693 2.23229 9.22913 1.83301 10.2107 1.83301C10.2107 1.83301 10.5912 1.83301 10.8318 1.87325L10.7513 2.37315C10.7513 2.37315 10.2308 2.29266 9.90964 2.37315C9.48882 2.47271 9.24821 2.65382 8.94823 2.93342C8.40763 3.47357 8.22743 4.0942 7.88611 5.55577L6.80492 10.3991H9.50896L9.3489 11.0398H6.64486L4.94251 18.5658C4.64253 19.9067 4.36164 21.0876 3.3398 22.0884C2.63915 22.7694 1.71695 23.1687 0.715257 23.1687H0.375L0.5552 22.6085C0.65484 22.6085 0.775677 22.6085 0.855177 22.5883C1.39577 22.5078 1.75617 22.3278 2.05721 21.9275C2.55753 21.2867 2.67837 20.8864 3.03876 19.446L4.92131 11.06H2.27663L2.43669 10.4192H5.08137L6.0025 6.43589H6.00357Z" fill="#ADD500"/>
<path d="M42.7422 13.4812H38.8965C39.1573 12.5005 39.9587 10.9394 41.3801 10.9394C42.9224 10.9192 42.9627 12.4804 42.7422 13.4812ZM41.52 10.1387C39.4965 10.1387 37.6935 11.4996 37.2737 13.6411C36.5529 17.2834 39.2569 17.9644 40.3986 17.9644C41.3801 17.9644 42.1412 17.6244 42.7221 17.1839L42.2016 16.5833C41.7808 16.8439 41.3197 17.0239 40.7791 17.0239C38.8966 17.0239 38.6358 15.4226 38.7354 14.302H44.1435C44.7043 12.5005 44.1032 10.1387 41.519 10.1387" fill="#ADD500"/>
<path d="M19.3659 4.6745C19.3659 4.6745 17.1028 14.4013 16.9025 15.5621C16.6025 17.3637 17.5438 17.6231 18.0441 17.7036C18.9653 17.8434 19.5663 17.6835 19.5663 17.6835L19.6659 17.083C19.6659 17.083 19.3256 17.2027 18.9048 17.1233C18.324 17.0237 18.2434 16.6827 18.3844 15.7019C18.5646 14.5613 20.9485 4.65332 20.9485 4.65332H19.3659V4.67344V4.6745Z" fill="#ADD500"/>
<path d="M47.4094 4.6745C47.4094 4.6745 45.1463 14.4013 44.946 15.5621C44.646 17.3637 45.5873 17.6231 46.0876 17.7036C47.0087 17.8434 47.6097 17.6835 47.6097 17.6835L47.7094 17.083C47.7094 17.083 47.3691 17.2027 46.9483 17.1233C46.3674 17.0237 46.2869 16.6827 46.4278 15.7019C46.608 14.5613 48.992 4.65332 48.992 4.65332H47.4094V4.67344V4.6745Z" fill="#ADD500"/>
<path d="M50.8747 4.6745C50.8747 4.6745 48.6116 14.4013 48.4113 15.5621C48.1113 17.3637 49.0324 17.6231 49.5529 17.7036C50.474 17.8434 51.075 17.6835 51.075 17.6835L51.1747 17.083C51.1747 17.083 50.8344 17.2027 50.4136 17.1233C49.8327 17.0237 49.7521 16.6827 49.8931 15.7019C50.0733 14.5613 52.4572 4.65332 52.4572 4.65332H50.8747V4.67344V4.6745Z" fill="#ADD500"/>
<path d="M13.956 14.5421C13.7758 15.1426 13.055 17.264 11.3516 17.264C9.32806 17.264 10.3096 14.2021 10.4697 13.6016C10.6297 13.0212 11.3707 10.8595 13.0137 10.8595C14.9969 10.8595 14.1351 13.9415 13.9549 14.5421M14.8559 10.3385L14.6757 11.0989H14.6153C14.2146 10.3385 13.4737 10.1182 12.7126 10.1182C10.4093 10.1182 9.08638 12.0193 8.70585 13.8409C8.14511 16.4432 8.94646 17.9439 11.1099 17.9439C12.0512 17.9439 12.773 17.7035 13.6942 16.8636L14.0949 17.7046H14.8559L16.4586 10.3395H14.8559V10.3385Z" fill="#ADD500"/>
<path d="M26.0945 14.5421C25.9143 15.1426 25.1935 17.264 23.4901 17.264C21.4666 17.264 22.4482 14.2021 22.6082 13.6016C22.7683 13.0212 23.5092 10.8394 25.1321 10.8394C27.1355 10.8595 26.2737 13.9415 26.0935 14.5421M26.9945 10.3385L26.8143 11.0989H26.774C26.3733 10.3385 25.6324 10.1182 24.8713 10.1182C22.5679 10.1182 21.2451 12.0193 20.8645 13.8409C20.3038 16.4432 21.1052 17.9439 23.2686 17.9439C24.2099 17.9439 24.9317 17.7035 25.8529 16.8636L26.2535 17.7046H27.0146L28.6173 10.3395H26.9945V10.3385Z" fill="#ADD500"/>
<path d="M57.4451 14.5421C57.2649 15.1426 56.5441 17.264 54.8407 17.264C52.8172 17.264 53.7987 14.2021 53.9588 13.6016C54.1189 13.0212 54.8407 10.8394 56.4827 10.8394C58.486 10.8595 57.6243 13.9415 57.4441 14.5421M58.3451 10.3385L58.1649 11.0989H58.1246C57.7038 10.3385 56.983 10.1182 56.2219 10.1182C53.9185 10.1182 52.6158 12.0193 52.2151 13.8409C51.6544 16.4432 52.4557 17.9439 54.6192 17.9439C55.5605 17.9439 56.2823 17.7035 57.2035 16.8636L57.6041 17.7046H58.3652L59.9679 10.3395H58.3451V10.3385Z" fill="#ADD500"/>
<path d="M34.4894 14.6224C34.3293 15.2229 33.6075 17.3443 32.0853 17.3443C30.2621 17.3443 30.8632 14.2824 31.0232 13.6819C31.2638 12.7213 31.8044 10.9801 33.3064 10.9801C35.3501 10.9801 34.6484 14.0028 34.4883 14.6224M33.9075 10.1795C33.0065 10.1795 32.0641 10.5798 31.584 11.2597H31.5235L33.0255 4.69434H31.3433C31.3433 4.69434 28.9997 14.8215 28.3584 17.7839H29.2997L30.0607 16.9429C30.6215 17.7839 31.2225 18.0232 32.1839 18.0232C34.3474 18.0232 35.7699 16.5225 36.3306 13.9202C36.7313 12.0784 36.2108 10.1773 33.9064 10.1773" fill="#ADD500"/>
<path d="M60.8501 16.604C60.8501 16.0437 61.3112 15.583 61.8719 15.583C62.4327 15.583 62.8938 16.0437 62.8938 16.604C62.8938 17.1643 62.4327 17.625 61.8719 17.625C61.3112 17.625 60.8501 17.1844 60.8501 16.604Z" fill="#ADD500"/>
</svg>
