<svg width="92" height="14" viewBox="0 0 92 14" fill="none" xmlns="http://www.w3.org/2000/svg">
<path fill-rule="evenodd" clip-rule="evenodd" d="M35.5243 3.62204C36.9622 4.10113 37.8487 5.13982 38.1976 6.60891C38.5316 8.01339 38.16 9.35923 37.3259 10.4307C36.225 11.8422 33.4746 12.4684 31.7688 11.0917L31.7066 11.6523H29.8634V8.96463V2.17879C29.8634 0.97509 30.8339 0 32.0297 0V4.19257C32.8213 3.43716 34.2188 3.17773 35.5243 3.62204ZM34.2741 9.83634C35.1645 9.73496 35.7634 9.20815 36.0234 8.35433C36.387 6.95879 35.6083 5.23823 33.5635 5.44895C32.5604 5.60302 32.0791 6.35147 32.0791 6.35147V8.96363C32.6474 9.66041 33.4321 9.93276 34.2741 9.83634ZM6.32958 2.09124H4.22553C3.5031 2.09124 2.91607 2.68066 2.91607 3.40726V4.67755H5.36007V6.75097H2.91607V11.8212C2.91607 13.0249 1.94557 14 0.749756 14V3.50168C0.749756 1.57735 2.30036 0.0178184 4.21367 0.0178184H6.32958V2.09124ZM18.6861 11.6701H16.5197V2.20052C16.5197 0.996822 17.4902 0.0217385 18.6861 0.0217385V11.6701ZM51.1964 11.6701H49.0301V2.20052C49.0301 0.996822 50.0006 0.0217385 51.1964 0.0217385V11.6701ZM52.6689 11.6701H54.8352V0.0217385C53.6394 0.0217385 52.6689 0.996822 52.6689 2.20052V11.6701ZM43.813 11.8799C40.5517 11.8799 39.1997 9.60072 39.3351 7.27284C39.4408 5.46381 40.8244 3.4043 43.6815 3.4043C46.9142 3.4043 48.2118 6.35142 47.7414 8.53319H41.6684C41.79 9.35222 42.5796 9.9168 43.644 9.98836C44.9199 10.0738 45.7421 9.11069 45.7421 9.11069L47.3876 9.9844C46.5841 11.3292 45.3063 11.8799 43.813 11.8799ZM43.6776 5.29782C42.1448 5.28788 41.6763 6.59694 41.6842 6.96967H45.6008C45.6364 6.64166 45.3231 5.30776 43.6776 5.29782ZM15.066 3.82691C14.5797 3.82691 14.134 3.99688 13.7832 4.27817C12.7178 3.50487 11.1593 3.1023 9.43872 3.68775C8.00967 4.16386 7.12812 5.1966 6.78124 6.65674C6.44917 8.05327 6.81879 9.39215 7.64795 10.4547C8.73901 11.8522 11.4548 12.4754 13.1517 11.1296L13.3226 11.6703H15.067V5.85461L15.066 3.82691ZM12.9263 9.04724C12.3166 9.75595 11.519 9.91697 10.681 9.82155C9.79647 9.72017 9.20054 9.24207 8.94161 8.39222C8.5799 7.00563 9.35471 5.25028 11.3866 5.46001C12.5034 5.63395 12.9254 6.45099 12.9254 6.45099V9.04724H12.9263ZM63.3928 4.28005C63.7436 3.99776 64.1893 3.82878 64.6755 3.82878H64.6765V5.85648V11.6722H62.9322L62.7613 11.1315C61.0644 12.4773 58.3486 11.8541 57.2575 10.4566C56.4284 9.39403 56.0588 8.05514 56.3908 6.65861C56.7377 5.19847 57.6192 4.16573 59.0483 3.68962C60.7689 3.10417 62.3274 3.50674 63.3928 4.28005ZM60.2906 9.82342C61.1286 9.91884 61.9262 9.75782 62.5359 9.04911H62.5349V6.45286C62.5349 6.45286 62.1129 5.63582 60.9962 5.46188C58.9643 5.25215 58.1895 7.0075 58.5512 8.39409C58.8101 9.24394 59.406 9.72204 60.2906 9.82342ZM27.1249 4.27817C26.0595 3.50487 24.501 3.1023 22.7804 3.68775C21.3514 4.16386 20.4698 5.1966 20.1229 6.65674C19.7909 8.05327 20.1605 9.39215 20.9896 10.4547C22.0807 11.8522 24.7965 12.4754 26.4934 11.1296L26.6643 11.6703H28.4086V5.85461V3.82591C27.9214 3.82691 27.4767 3.99589 27.1249 4.27817ZM26.268 9.04724C25.6583 9.75595 24.8607 9.91697 24.0227 9.82155C23.1382 9.72017 22.5422 9.24207 22.2833 8.39222C21.9216 7.00563 22.6964 5.25028 24.7283 5.46001C25.8451 5.63395 26.2671 6.45099 26.2671 6.45099V9.04724H26.268ZM73.9861 8.3067C73.9861 6.39729 75.4349 4.95602 77.3561 4.95602C79.2843 4.95602 80.738 6.39629 80.739 8.3067C80.739 10.2251 79.2843 11.6703 77.3561 11.6703C75.4349 11.6703 73.9861 10.2251 73.9861 8.3067ZM75.7225 8.30571C75.7225 9.31658 76.4084 10.0501 77.3551 10.0501C78.294 10.0501 79.0026 9.30067 79.0026 8.30571C79.0026 7.31969 78.295 6.5762 77.3551 6.5762C76.4242 6.5762 75.7225 7.31969 75.7225 8.30571ZM88.7233 4.95606C87.7281 4.87952 86.8772 5.39838 86.4028 5.69359C85.8583 5.25227 85.2515 4.95606 84.4757 4.95606C83.0308 4.95606 81.5563 5.82877 81.5563 5.82877V11.5183H83.2423V6.80187C83.5141 6.60407 84.0053 6.57723 84.28 6.57723C84.8562 6.57723 85.5282 7.03148 85.5282 7.79883V11.5183H87.2142V7.37141C87.2142 7.03744 87.1233 6.86746 87.1233 6.86746C88.2479 6.23629 89.5643 6.71739 89.5643 7.79883V11.5183H91.2503V7.77298C91.2494 5.95402 89.8509 5.04254 88.7233 4.95606ZM71.0687 6.57612C70.2682 6.57612 69.5923 7.25699 69.4608 8.03526C69.0359 7.61879 68.4775 7.33949 67.8558 7.26494C68.2857 5.89624 69.5577 4.95495 71.1448 4.95495C72.5541 4.95495 73.5246 5.74913 73.5246 5.74913L72.6628 7.11088C72.6628 7.11088 72.0066 6.57612 71.0687 6.57612ZM72.7083 9.47736C72.7083 9.47736 72.0629 10.0489 71.0697 10.0489C70.789 10.0489 70.5242 9.96441 70.2919 9.82128C70.2969 9.89086 70.3008 9.96044 70.3008 10.031C70.3008 10.5538 70.1575 11.0429 69.9085 11.4613C70.29 11.5965 70.706 11.6701 71.1468 11.6701C72.7251 11.6701 73.6106 10.7506 73.6106 10.7506L72.7083 9.47736ZM69.0803 10.0321C69.0803 10.8934 68.3861 11.5917 67.5297 11.5917C66.6733 11.5917 65.9791 10.8934 65.9791 10.0321C65.9791 9.17081 66.6733 8.47258 67.5297 8.47258C68.3861 8.47258 69.0803 9.17081 69.0803 10.0321Z" fill="#FF7100"/>
</svg>
