<svg width="81" height="14" viewBox="0 0 81 14" fill="none" xmlns="http://www.w3.org/2000/svg">
<g clip-path="url(#clip0_381_2314)">
<path fill-rule="evenodd" clip-rule="evenodd" d="M25.4759 10.6277C25.4759 11.1567 25.3425 11.6146 25.0758 12.0014C24.809 12.3882 24.4356 12.6861 23.9555 12.8906C23.4753 13.0951 22.9285 13.1973 22.3061 13.1973C22.1327 13.1973 21.9193 13.1884 21.6704 13.1617C21.417 13.1395 21.0835 13.0773 20.6701 12.975C20.2522 12.8728 19.821 12.7216 19.3675 12.5216V10.4454C19.7899 10.7122 20.2078 10.93 20.6168 11.1034C21.0258 11.2768 21.4614 11.3657 21.9282 11.3657C22.3595 11.3657 22.6395 11.2946 22.764 11.1478C22.8929 11.0056 22.9552 10.8678 22.9552 10.7433C22.9552 10.5166 22.8485 10.321 22.6306 10.1654C22.4128 10.0098 22.0972 9.84526 21.6837 9.68077C21.2258 9.48516 20.8213 9.27177 20.4745 9.0406C20.1277 8.80942 19.8432 8.52045 19.6254 8.17813C19.4075 7.83137 19.2964 7.42237 19.2964 6.95113C19.2964 6.47988 19.4075 6.08422 19.6298 5.71523C19.8521 5.34624 20.19 5.05282 20.6434 4.83054C21.0969 4.6127 21.6526 4.50156 22.3106 4.50156C22.7774 4.50156 23.2086 4.54601 23.6043 4.63937C23.9999 4.73273 24.3289 4.83498 24.5867 4.94612C24.8446 5.06171 25.0224 5.15063 25.1202 5.21731V7.20453C24.7779 6.95557 24.3956 6.73329 23.9777 6.53768C23.5553 6.34207 23.1063 6.24426 22.6262 6.24426C22.3106 6.24426 22.0838 6.3065 21.946 6.42654C21.8038 6.54657 21.7326 6.69772 21.7326 6.88C21.7326 7.04893 21.8038 7.19119 21.946 7.31567C22.0883 7.43571 22.3372 7.58686 22.7018 7.76024C23.3464 8.06699 23.8621 8.34262 24.2489 8.58714C24.6356 8.83165 24.938 9.11173 25.1558 9.43182C25.3736 9.7519 25.4848 10.1476 25.4848 10.6277" fill="#E1081F"/>
<path fill-rule="evenodd" clip-rule="evenodd" d="M35.7498 8.92939C35.7498 9.70739 35.572 10.4187 35.2208 11.0722C34.8651 11.7257 34.3405 12.2414 33.6381 12.6282C32.9402 13.0105 32.0866 13.2061 31.0819 13.2061C30.0771 13.2061 29.2058 13.0061 28.5034 12.606C27.801 12.2059 27.2764 11.6813 26.934 11.0278C26.5917 10.3742 26.4228 9.67627 26.4228 8.93384C26.4228 8.19141 26.5917 7.48899 26.934 6.83548C27.2719 6.18641 27.7965 5.66182 28.5034 5.26171C29.2102 4.8616 30.0682 4.66599 31.0863 4.66599C31.8465 4.66599 32.5223 4.78157 33.118 5.0083C33.7137 5.23503 34.2027 5.54623 34.5851 5.93745C34.9674 6.32867 35.2608 6.78213 35.4564 7.29783C35.652 7.81797 35.7543 8.36034 35.7543 8.93384M33.2291 8.93384C33.2291 8.62264 33.1847 8.33812 33.0913 8.08027C32.9979 7.82242 32.8646 7.60013 32.6779 7.40897C32.4956 7.21781 32.2689 7.0711 32.0066 6.9644C31.7398 6.85771 31.4331 6.80436 31.0863 6.80436C30.4239 6.80436 29.8993 6.99997 29.5214 7.39119C29.1435 7.78241 28.9524 8.29811 28.9524 8.93384C28.9524 9.56957 29.1435 10.0853 29.5259 10.4809C29.9082 10.8766 30.4283 11.0722 31.0908 11.0722C31.5442 11.0722 31.931 10.9833 32.2511 10.801C32.5712 10.6188 32.8157 10.3653 32.9802 10.0453C33.1447 9.72517 33.2291 9.35618 33.2291 8.93828" fill="#E1081F"/>
<path fill-rule="evenodd" clip-rule="evenodd" d="M45.2947 9.08499C45.2947 9.93856 45.1435 10.6232 44.8368 11.1389C44.53 11.6546 44.1699 12.0725 43.7565 12.3926C43.1652 12.8594 42.3428 13.095 41.2847 13.095H36.8479V4.77713H40.2622C40.7779 4.77713 41.218 4.8038 41.5825 4.85715C41.9471 4.9105 42.2761 4.98608 42.5695 5.08388C42.8629 5.18169 43.1119 5.29283 43.3164 5.41286C43.5209 5.5329 43.7076 5.66627 43.8676 5.80408C44.1477 6.03526 44.3967 6.31089 44.6056 6.62653C44.819 6.94218 44.9835 7.30672 45.108 7.72462C45.2324 8.14251 45.2947 8.59152 45.2947 9.08055M42.774 8.97385C42.774 8.29811 42.6451 7.76907 42.3917 7.39119C42.1383 7.01331 41.8315 6.7599 41.4714 6.63098C41.1113 6.50205 40.7468 6.43981 40.3778 6.43981H39.3241V11.3656H40.3778C41.0268 11.3656 41.587 11.21 42.0627 10.8988C42.5384 10.5876 42.774 9.94301 42.774 8.97385" fill="#E1081F"/>
<path fill-rule="evenodd" clip-rule="evenodd" d="M46.3083 13.0906H48.789V4.77713H46.3083V13.0906Z" fill="#E1081F"/>
<path fill-rule="evenodd" clip-rule="evenodd" d="M59.5298 13.0906H57.0491V8.27143L54.8129 11.0633H54.6173L52.3767 8.27143V13.0906H49.9716V4.77713H52.2166L54.7418 7.89355L57.2803 4.77713H59.5298V13.0906Z" fill="#E1081F"/>
<path fill-rule="evenodd" clip-rule="evenodd" d="M70.0615 13.0905H67.5231L66.8518 11.4056H63.2819L62.6017 13.0905H60.0632L63.6998 4.77267H66.4383L70.0615 13.0905ZM66.2827 9.95634L65.0779 6.91994L63.8643 9.95634H66.2827Z" fill="#E1081F"/>
<path fill-rule="evenodd" clip-rule="evenodd" d="M77.6326 12.4681C77.2947 12.646 76.9435 12.7927 76.5878 12.8994C76.2322 13.0061 75.8721 13.0861 75.512 13.1305C75.1519 13.175 74.774 13.2017 74.3872 13.2017C73.6715 13.2017 73.0313 13.1039 72.4623 12.9038C71.8932 12.7038 71.4042 12.4103 70.9863 12.0191C70.5684 11.6279 70.2572 11.1745 70.0483 10.6499C69.8393 10.1297 69.7371 9.55622 69.7371 8.92938C69.7371 8.21363 69.8615 7.58679 70.1061 7.04886C70.3506 6.51093 70.6929 6.06192 71.133 5.70626C71.5731 5.35061 72.0755 5.08832 72.6401 4.91493C73.2047 4.746 73.796 4.66153 74.4228 4.66153C75.3564 4.66153 76.4145 4.87048 77.597 5.29282V7.50232C77.188 7.24447 76.7879 7.03552 76.3922 6.86214C75.9966 6.69321 75.5253 6.60874 74.9874 6.60874C74.5073 6.60874 74.0627 6.70654 73.6493 6.89771C73.2358 7.08887 72.8979 7.3645 72.649 7.72016C72.3956 8.07581 72.2711 8.49371 72.2711 8.96939C72.2711 9.38729 72.3822 9.77406 72.6045 10.1253C72.8268 10.4765 73.1336 10.7521 73.5248 10.9611C73.9204 11.1656 74.3606 11.2723 74.8585 11.2723C75.2586 11.2723 75.6365 11.2234 75.9921 11.1255C76.3478 11.0277 76.6456 10.9166 76.8902 10.7966C77.1347 10.6765 77.3836 10.5343 77.6415 10.3698V12.477L77.6326 12.4681Z" fill="#E1081F"/>
<path fill-rule="evenodd" clip-rule="evenodd" d="M79.1619 11.4679H79.4864C79.6331 11.4679 79.7398 11.4901 79.8109 11.5434C79.8865 11.5923 79.9265 11.6635 79.9265 11.7613C79.9265 11.8369 79.9043 11.8991 79.8598 11.9524C79.8198 12.0013 79.762 12.0325 79.6865 12.0458L79.9176 12.5304H79.7354L79.5264 12.0636H79.3264V12.5304H79.1619V11.4723V11.4679ZM79.3264 11.5968V11.948H79.4908C79.5886 11.948 79.6553 11.9347 79.6953 11.908C79.7354 11.8813 79.7576 11.8369 79.7576 11.7791C79.7576 11.7124 79.7354 11.6679 79.6953 11.6368C79.6509 11.6101 79.5798 11.5968 79.4864 11.5968H79.3264Z" fill="#E1081F"/>
<path fill-rule="evenodd" clip-rule="evenodd" d="M79.4953 13.0283C79.3664 13.0283 79.2419 13.0016 79.113 12.9483C78.993 12.8949 78.8818 12.8193 78.7885 12.726C78.6951 12.6282 78.624 12.5215 78.5751 12.397C78.5217 12.2725 78.4995 12.1436 78.4995 12.0102C78.4995 11.8946 78.5173 11.7879 78.5528 11.6812C78.5884 11.5745 78.6417 11.4767 78.7129 11.3878C78.8107 11.2634 78.9263 11.1655 79.0596 11.1033C79.3042 10.9788 79.6198 10.9699 79.8865 11.0811C80.0066 11.1344 80.1177 11.2056 80.2111 11.3078C80.3089 11.4012 80.38 11.5123 80.4289 11.6323C80.4778 11.7568 80.5045 11.8857 80.5045 12.0147C80.5045 12.1436 80.4778 12.2859 80.4289 12.4059C80.3756 12.5304 80.3 12.6415 80.2066 12.7304C80.1133 12.8238 80.0021 12.8994 79.8776 12.9483C79.7532 13.0016 79.6287 13.0283 79.4998 13.0283M79.4998 11.1611C79.3708 11.1611 79.2419 11.1922 79.1308 11.2456C79.0152 11.2989 78.9174 11.3834 78.8374 11.4856C78.7796 11.5612 78.7351 11.6457 78.704 11.7346C78.6729 11.8235 78.6595 11.9124 78.6595 12.0102C78.6595 12.1214 78.6818 12.2325 78.7218 12.3392C78.7662 12.4415 78.8285 12.5304 78.904 12.6104C78.9841 12.6904 79.0774 12.7571 79.1797 12.8016C79.3842 12.886 79.6065 12.8905 79.8198 12.8016C79.9265 12.7571 80.0199 12.6949 80.0999 12.6148C80.1844 12.5348 80.2422 12.4459 80.2866 12.3437C80.3267 12.2414 80.3489 12.1258 80.3489 12.0102C80.3489 11.8991 80.3267 11.7879 80.2866 11.6857C80.2466 11.5834 80.1844 11.4901 80.1088 11.4101C80.0288 11.3256 79.9354 11.2634 79.8332 11.2233C79.7309 11.1789 79.6198 11.1567 79.5042 11.1567" fill="#E1081F"/>
<path fill-rule="evenodd" clip-rule="evenodd" d="M13.0279 1.97638H9.93373V0.798279H8.75563H7.57752V1.97638H4.49667L0.5 6.54654V13.1795H17.0068V6.54654L13.0279 1.97638Z" fill="#1D1D1B"/>
<path fill-rule="evenodd" clip-rule="evenodd" d="M1.67816 12.0014H8.16441V7.7291H1.67816V12.0014Z" fill="#E1081F"/>
<path fill-rule="evenodd" clip-rule="evenodd" d="M9.34247 12.0014H15.8287V7.7291H9.34247V12.0014Z" fill="#FEFEFE"/>
<path fill-rule="evenodd" clip-rule="evenodd" d="M15.5398 6.5421L12.5789 3.1456H6.38611L9.36027 6.5421H15.5398Z" fill="#006AB3"/>
<path fill-rule="evenodd" clip-rule="evenodd" d="M7.8754 6.54655L4.97237 3.13672L1.98932 6.54655H7.8754Z" fill="#FFEC00"/>
</g>
<defs>
<clipPath id="clip0_381_2314">
<rect width="80" height="12.4034" fill="white" transform="translate(0.5 0.798279)"/>
</clipPath>
</defs>
</svg>
