<svg width="25" height="24" viewBox="0 0 25 24" fill="none" xmlns="http://www.w3.org/2000/svg">
<path d="M19 0H6V24H19V0Z" fill="#ADD500"/>
<path d="M16.5515 3.05491V2.8161C16.5515 2.8161 16.0338 2.77717 15.8098 2.79274C15.5857 2.80831 14.5972 2.98548 13.9873 3.73436C13.3768 4.4826 13.0527 5.66368 12.9059 6.45864C12.7591 7.2536 12.4734 8.63456 12.4272 8.84287C12.3805 9.05118 12.1642 10.1317 12.1493 10.2011C12.1337 10.2706 12.1337 10.3478 12.0259 10.3478H9.80136C9.80136 10.3478 9.73186 10.3322 9.72407 10.3783C9.71628 10.425 9.67016 10.6638 9.67016 10.6638C9.67016 10.6638 9.66237 10.7177 9.73186 10.7177H11.9869C11.9869 10.7177 12.0408 10.7099 12.0252 10.7638C12.0096 10.8176 11.1374 14.7996 11.1218 14.9001C11.1062 15.0007 10.458 17.9716 10.3956 18.2721C10.3339 18.5732 10.0715 19.7309 9.7546 20.1702C9.43765 20.6109 9.13628 20.8341 8.51862 20.9503C8.51862 20.9503 8.42574 20.9503 8.41795 20.9886C8.41016 21.0268 8.41016 21.1508 8.41016 21.1508C8.41016 21.1508 8.43354 21.1969 8.49524 21.1969C8.55694 21.1969 9.36815 21.3202 10.2404 20.7108C11.1133 20.1008 11.4374 19.1598 11.5459 18.8126C11.6537 18.4655 12.1869 15.9573 12.233 15.7568C12.2792 15.5562 12.8273 13.0098 12.8897 12.7547C12.9514 12.5003 13.2911 10.7949 13.2911 10.7949C13.2911 10.7949 13.3066 10.7177 13.3683 10.7177H15.8708C15.8708 10.7177 15.9247 10.7333 15.9481 10.6482C15.9715 10.5632 16.0098 10.4166 16.0098 10.4166C16.0098 10.4166 16.0481 10.3471 15.9708 10.3471H13.4372C13.4372 10.3471 13.3833 10.3549 13.3989 10.2699C13.4138 10.1849 13.9626 7.57678 14.0399 7.17573C14.1172 6.77468 14.542 4.86093 14.6271 4.55982C14.7115 4.25871 14.9784 3.56628 15.4305 3.2788C15.8591 3.00559 16.0637 3.04713 16.1566 3.04713C16.2495 3.04713 16.5502 3.05491 16.5502 3.05491H16.5515Z" fill="white"/>
<path d="M15.8497 12.1153C16.1582 12.112 16.5914 12.3197 16.5888 12.8356C16.5849 13.4807 15.9952 13.5663 15.8354 13.5553C15.5724 13.5378 15.1489 13.3249 15.1489 12.8499C15.1483 12.26 15.6653 12.1172 15.8504 12.1153H15.8497Z" fill="white"/>
</svg>
