<svg width="25" height="24" viewBox="0 0 25 24" fill="none" xmlns="http://www.w3.org/2000/svg">
<path d="M12.5001 16.4434C10.9642 16.4434 9.72095 17.6886 9.72095 19.2226C9.72095 20.7565 10.9701 21.9998 12.5001 21.9998C14.0302 21.9998 15.2754 20.7565 15.2754 19.2226C15.2754 17.6886 14.0361 16.4434 12.5001 16.4434Z" fill="#5FAB30"/>
<path d="M19.7228 9.2207C18.1869 9.2207 16.9417 10.4659 16.9417 11.9999C16.9417 13.5339 18.1908 14.7771 19.7228 14.7771C21.2548 14.7771 22.5 13.5358 22.5 11.9999C22.5 10.464 21.2587 9.2207 19.7228 9.2207Z" fill="#5FAB30"/>
<path d="M12.5001 2C10.9662 2 9.72095 3.24524 9.72095 4.78116C9.72095 6.31316 10.9701 7.55487 12.5001 7.55487C14.0302 7.55487 15.2754 6.31709 15.2754 4.78116C15.2754 3.24524 14.0341 2 12.5001 2Z" fill="#5FAB30"/>
<path d="M5.27724 9.2207C3.7417 9.2207 2.5 10.4659 2.5 11.9999C2.5 13.5339 3.74524 14.7771 5.27724 14.7771C6.80923 14.7771 8.05447 13.5339 8.05447 11.9999C8.05447 10.4659 6.81277 9.2207 5.27724 9.2207Z" fill="#5FAB30"/>
<path d="M18.9163 15.9551C17.5532 15.9551 16.4482 17.0581 16.4482 18.4192C16.4482 19.7804 17.5477 20.8889 18.9163 20.8889C20.2849 20.8889 21.388 19.7804 21.388 18.4192C21.388 17.0581 20.2794 15.9551 18.9163 15.9551Z" fill="#D6D70F"/>
<path d="M6.07623 15.9551C4.71315 15.9551 3.61011 17.0581 3.61011 18.4192C3.61011 19.7804 4.71118 20.8889 6.07623 20.8889C7.44128 20.8889 8.54432 19.7804 8.54432 18.4192C8.54432 17.0581 7.43931 15.9551 6.07623 15.9551Z" fill="#D6D70F"/>
<path d="M18.9163 3.11133C17.5532 3.11133 16.4482 4.2179 16.4482 5.58099C16.4482 6.94564 17.5532 8.05064 18.9163 8.05064C20.2794 8.04907 21.388 6.94407 21.388 5.58099C21.388 4.2179 20.2794 3.11133 18.9163 3.11133Z" fill="#D6D70F"/>
<path d="M6.07623 3.11328C4.71315 3.11328 3.61011 4.21828 3.61011 5.58137C3.61011 6.94642 4.71157 8.04945 6.07623 8.04945C7.44089 8.04945 8.54589 6.94445 8.54589 5.58137C8.54589 4.21828 7.43931 3.11328 6.07623 3.11328Z" fill="#D6D70F"/>
<ellipse cx="12.4997" cy="11.9992" rx="3.08515" ry="3.08515" fill="#08813C"/>
</svg>
